<svg width="144" height="63" viewBox="0 0 144 63" fill="none" xmlns="http://www.w3.org/2000/svg">
<path d="M81.174 8.11C81.798 8.11 82.284 8.092 82.632 8.056V8.416C81.972 8.656 81.414 9.4 80.958 10.648L77.934 19.036C77.85 19.024 77.712 19.018 77.52 19.018C77.34 19.018 77.202 19.024 77.106 19.036L74.406 12.412L71.76 19.036C71.664 19.024 71.526 19.018 71.346 19.018C71.166 19.018 71.028 19.024 70.932 19.036L66.918 9.568C66.594 8.824 66.216 8.44 65.784 8.416V8.056C66.348 8.092 67.134 8.11 68.142 8.11C69.318 8.11 70.194 8.092 70.77 8.056V8.416C70.17 8.452 69.87 8.698 69.87 9.154C69.87 9.382 69.93 9.64 70.05 9.928L72.498 16.048L74.19 11.89L73.254 9.568C73.098 9.184 72.918 8.902 72.714 8.722C72.51 8.53 72.312 8.428 72.12 8.416V8.056C72.672 8.092 73.458 8.11 74.478 8.11C75.702 8.11 76.614 8.092 77.214 8.056V8.416C76.818 8.44 76.53 8.506 76.35 8.614C76.182 8.71 76.098 8.878 76.098 9.118C76.098 9.334 76.158 9.604 76.278 9.928L78.564 16.084L79.986 12.07C80.334 11.134 80.508 10.384 80.508 9.82C80.508 9.34 80.388 8.992 80.148 8.776C79.908 8.56 79.56 8.44 79.104 8.416V8.056C79.788 8.092 80.478 8.11 81.174 8.11ZM88.9591 7.804C90.1711 7.804 91.2331 8.026 92.1451 8.47C93.0571 8.902 93.7651 9.544 94.2691 10.396C94.7731 11.236 95.0251 12.244 95.0251 13.42C95.0251 14.572 94.7671 15.592 94.2511 16.48C93.7351 17.356 93.0151 18.04 92.0911 18.532C91.1671 19.012 90.1171 19.252 88.9411 19.252C87.7291 19.252 86.6671 19.036 85.7551 18.604C84.8431 18.16 84.1351 17.518 83.6311 16.678C83.1271 15.826 82.8751 14.812 82.8751 13.636C82.8751 12.484 83.1331 11.47 83.6491 10.594C84.1651 9.706 84.8851 9.022 85.8091 8.542C86.7331 8.05 87.7831 7.804 88.9591 7.804ZM88.8871 8.128C88.2631 8.128 87.7111 8.362 87.2311 8.83C86.7631 9.286 86.3971 9.928 86.1331 10.756C85.8811 11.572 85.7551 12.508 85.7551 13.564C85.7551 14.632 85.8991 15.574 86.1871 16.39C86.4751 17.206 86.8651 17.836 87.3571 18.28C87.8611 18.712 88.4131 18.928 89.0131 18.928C89.6371 18.928 90.1831 18.7 90.6511 18.244C91.1311 17.776 91.4971 17.134 91.7491 16.318C92.0131 15.49 92.1451 14.548 92.1451 13.492C92.1451 12.424 92.0011 11.482 91.7131 10.666C91.4251 9.85 91.0291 9.226 90.5251 8.794C90.0331 8.35 89.4871 8.128 88.8871 8.128ZM102.617 7.804C103.829 7.804 104.891 8.026 105.803 8.47C106.715 8.902 107.423 9.544 107.927 10.396C108.431 11.236 108.683 12.244 108.683 13.42C108.683 14.572 108.425 15.592 107.909 16.48C107.393 17.356 106.673 18.04 105.749 18.532C104.825 19.012 103.775 19.252 102.599 19.252C101.387 19.252 100.325 19.036 99.4133 18.604C98.5013 18.16 97.7933 17.518 97.2893 16.678C96.7853 15.826 96.5333 14.812 96.5333 13.636C96.5333 12.484 96.7913 11.47 97.3073 10.594C97.8233 9.706 98.5433 9.022 99.4673 8.542C100.391 8.05 101.441 7.804 102.617 7.804ZM102.545 8.128C101.921 8.128 101.369 8.362 100.889 8.83C100.421 9.286 100.055 9.928 99.7913 10.756C99.5393 11.572 99.4133 12.508 99.4133 13.564C99.4133 14.632 99.5573 15.574 99.8453 16.39C100.133 17.206 100.523 17.836 101.015 18.28C101.519 18.712 102.071 18.928 102.671 18.928C103.295 18.928 103.841 18.7 104.309 18.244C104.789 17.776 105.155 17.134 105.407 16.318C105.671 15.49 105.803 14.548 105.803 13.492C105.803 12.424 105.659 11.482 105.371 10.666C105.083 9.85 104.687 9.226 104.183 8.794C103.691 8.35 103.145 8.128 102.545 8.128ZM115.343 8.056C117.443 8.056 119.015 8.512 120.059 9.424C121.103 10.324 121.625 11.644 121.625 13.384C121.625 14.512 121.373 15.502 120.869 16.354C120.365 17.194 119.627 17.848 118.655 18.316C117.683 18.772 116.525 19 115.181 19L114.029 18.982C113.261 18.958 112.697 18.946 112.337 18.946C111.269 18.946 110.453 18.964 109.889 19V18.64C110.297 18.616 110.591 18.568 110.771 18.496C110.951 18.424 111.071 18.286 111.131 18.082C111.203 17.878 111.239 17.548 111.239 17.092V9.964C111.239 9.508 111.203 9.178 111.131 8.974C111.071 8.77 110.951 8.632 110.771 8.56C110.591 8.488 110.297 8.44 109.889 8.416V8.056C110.345 8.092 110.987 8.11 111.815 8.11L113.543 8.092C114.431 8.068 115.031 8.056 115.343 8.056ZM115.109 8.38C114.797 8.38 114.563 8.422 114.407 8.506C114.251 8.59 114.143 8.74 114.083 8.956C114.023 9.172 113.993 9.496 113.993 9.928V17.128C113.993 17.56 114.023 17.884 114.083 18.1C114.143 18.316 114.251 18.466 114.407 18.55C114.563 18.634 114.803 18.676 115.127 18.676C116.051 18.676 116.777 18.484 117.305 18.1C117.833 17.704 118.205 17.128 118.421 16.372C118.637 15.616 118.745 14.644 118.745 13.456C118.745 11.704 118.469 10.42 117.917 9.604C117.365 8.788 116.429 8.38 115.109 8.38ZM70.716 38.572V41.092C70.716 41.548 70.752 41.878 70.824 42.082C70.896 42.286 71.028 42.424 71.22 42.496C71.424 42.568 71.742 42.616 72.174 42.64V43C71.478 42.964 70.464 42.946 69.132 42.946C68.016 42.946 67.176 42.964 66.612 43V42.64C67.02 42.616 67.314 42.568 67.494 42.496C67.674 42.424 67.794 42.286 67.854 42.082C67.926 41.878 67.962 41.548 67.962 41.092V33.964C67.962 33.508 67.926 33.178 67.854 32.974C67.794 32.77 67.668 32.632 67.476 32.56C67.296 32.488 67.008 32.44 66.612 32.416V32.056C67.176 32.092 67.98 32.11 69.024 32.11L71.202 32.092C71.454 32.08 71.742 32.074 72.066 32.074C73.626 32.074 74.784 32.338 75.54 32.866C76.308 33.382 76.692 34.12 76.692 35.08C76.692 36.052 76.29 36.88 75.486 37.564C74.694 38.236 73.362 38.572 71.49 38.572H70.716ZM71.832 32.416C71.52 32.416 71.286 32.458 71.13 32.542C70.974 32.626 70.866 32.776 70.806 32.992C70.746 33.208 70.716 33.532 70.716 33.964V38.212H71.31C72.258 38.212 72.912 37.948 73.272 37.42C73.632 36.892 73.812 36.178 73.812 35.278C73.812 34.306 73.656 33.586 73.344 33.118C73.044 32.65 72.54 32.416 71.832 32.416ZM89.2443 42.244C88.9563 42.58 88.6323 42.832 88.2723 43C87.9123 43.168 87.4623 43.252 86.9223 43.252C86.2383 43.252 85.7103 43.12 85.3383 42.856C84.9663 42.592 84.7263 42.238 84.6183 41.794L84.0963 39.67C83.9643 38.998 83.7603 38.554 83.4843 38.338C83.2203 38.11 82.8243 37.996 82.2963 37.996H81.7023V41.092C81.7023 41.548 81.7323 41.878 81.7923 42.082C81.8643 42.286 81.9903 42.424 82.1703 42.496C82.3623 42.568 82.6563 42.616 83.0523 42.64V43C82.3683 42.964 81.3903 42.946 80.1183 42.946C79.0023 42.946 78.1623 42.964 77.5983 43V42.64C78.0063 42.616 78.3003 42.568 78.4803 42.496C78.6603 42.424 78.7803 42.286 78.8403 42.082C78.9123 41.878 78.9483 41.548 78.9483 41.092V33.964C78.9483 33.508 78.9123 33.178 78.8403 32.974C78.7803 32.77 78.6603 32.632 78.4803 32.56C78.3003 32.488 78.0063 32.44 77.5983 32.416V32.056C78.1623 32.092 78.9663 32.11 80.0103 32.11L82.0623 32.092C82.3023 32.08 82.5723 32.074 82.8723 32.074C84.4803 32.074 85.6803 32.32 86.4723 32.812C87.2763 33.292 87.6783 33.964 87.6783 34.828C87.6783 35.572 87.3603 36.226 86.7243 36.79C86.0883 37.354 85.0263 37.714 83.5383 37.87C83.7063 37.87 83.8803 37.888 84.0603 37.924C84.9243 38.02 85.6023 38.212 86.0943 38.5C86.5983 38.788 86.9283 39.244 87.0843 39.868L87.4623 41.47C87.5463 41.806 87.6483 42.046 87.7683 42.19C87.8883 42.334 88.0383 42.406 88.2183 42.406C88.4703 42.406 88.7283 42.274 88.9923 42.01L89.2443 42.244ZM82.6383 32.416C82.3743 32.416 82.1763 32.458 82.0443 32.542C81.9123 32.626 81.8223 32.776 81.7743 32.992C81.7263 33.208 81.7023 33.532 81.7023 33.964V37.636H82.4763C83.3643 37.636 83.9703 37.408 84.2943 36.952C84.6303 36.496 84.7983 35.854 84.7983 35.026C84.7983 34.15 84.6303 33.496 84.2943 33.064C83.9703 32.632 83.4183 32.416 82.6383 32.416ZM95.7443 31.804C96.9563 31.804 98.0183 32.026 98.9303 32.47C99.8423 32.902 100.55 33.544 101.054 34.396C101.558 35.236 101.81 36.244 101.81 37.42C101.81 38.572 101.552 39.592 101.036 40.48C100.52 41.356 99.8003 42.04 98.8763 42.532C97.9523 43.012 96.9023 43.252 95.7263 43.252C94.5143 43.252 93.4523 43.036 92.5403 42.604C91.6283 42.16 90.9203 41.518 90.4163 40.678C89.9123 39.826 89.6603 38.812 89.6603 37.636C89.6603 36.484 89.9183 35.47 90.4343 34.594C90.9503 33.706 91.6703 33.022 92.5943 32.542C93.5183 32.05 94.5683 31.804 95.7443 31.804ZM95.6723 32.128C95.0483 32.128 94.4963 32.362 94.0163 32.83C93.5483 33.286 93.1823 33.928 92.9183 34.756C92.6663 35.572 92.5403 36.508 92.5403 37.564C92.5403 38.632 92.6843 39.574 92.9723 40.39C93.2603 41.206 93.6503 41.836 94.1423 42.28C94.6463 42.712 95.1983 42.928 95.7983 42.928C96.4223 42.928 96.9683 42.7 97.4363 42.244C97.9163 41.776 98.2823 41.134 98.5343 40.318C98.7983 39.49 98.9303 38.548 98.9303 37.492C98.9303 36.424 98.7863 35.482 98.4983 34.666C98.2103 33.85 97.8143 33.226 97.3103 32.794C96.8183 32.35 96.2723 32.128 95.6723 32.128ZM108.38 32.416C107.972 32.44 107.678 32.488 107.498 32.56C107.318 32.632 107.192 32.77 107.12 32.974C107.06 33.178 107.03 33.508 107.03 33.964V38.752V39.562C107.03 40.438 107.012 41.194 106.976 41.83C106.94 42.466 106.856 43.006 106.724 43.45C106.484 44.314 105.986 45.016 105.23 45.556C104.474 46.096 103.538 46.366 102.422 46.366C101.69 46.366 101.126 46.258 100.73 46.042C100.238 45.802 99.9919 45.418 99.9919 44.89C99.9919 44.542 100.124 44.26 100.388 44.044C100.64 43.828 100.976 43.72 101.396 43.72C101.804 43.72 102.128 43.816 102.368 44.008C102.608 44.212 102.728 44.494 102.728 44.854C102.728 45.094 102.656 45.316 102.512 45.52C102.38 45.724 102.182 45.88 101.918 45.988C102.086 46.012 102.248 46.024 102.404 46.024C103.004 46.024 103.466 45.712 103.79 45.088C103.97 44.8 104.096 44.416 104.168 43.936C104.24 43.456 104.276 42.754 104.276 41.83V33.964C104.276 33.508 104.24 33.178 104.168 32.974C104.108 32.77 103.982 32.632 103.79 32.56C103.61 32.488 103.322 32.44 102.926 32.416V32.056C103.502 32.092 104.378 32.11 105.554 32.11C106.766 32.11 107.708 32.092 108.38 32.056V32.416ZM118.881 40.66C118.881 41.344 118.923 42.124 119.007 43C118.227 42.964 116.913 42.946 115.065 42.946C112.593 42.946 110.733 42.964 109.485 43V42.64C109.893 42.616 110.187 42.568 110.367 42.496C110.547 42.424 110.667 42.286 110.727 42.082C110.799 41.878 110.835 41.548 110.835 41.092V33.964C110.835 33.508 110.799 33.178 110.727 32.974C110.667 32.77 110.541 32.632 110.349 32.56C110.169 32.488 109.881 32.44 109.485 32.416V32.056C110.733 32.092 112.593 32.11 115.065 32.11C116.745 32.11 117.939 32.092 118.647 32.056C118.563 32.86 118.521 33.58 118.521 34.216C118.521 34.684 118.539 35.056 118.575 35.332H118.161C117.981 34.3 117.669 33.568 117.225 33.136C116.781 32.692 116.169 32.47 115.389 32.47H114.723C114.411 32.47 114.177 32.5 114.021 32.56C113.865 32.608 113.751 32.716 113.679 32.884C113.619 33.04 113.589 33.292 113.589 33.64V37.312H114.435C114.987 37.312 115.401 37.12 115.677 36.736C115.965 36.34 116.157 35.884 116.253 35.368H116.667C116.631 35.776 116.613 36.244 116.613 36.772V37.492C116.613 38.032 116.649 38.74 116.721 39.616H116.307C116.223 39.052 116.031 38.59 115.731 38.23C115.443 37.858 115.011 37.672 114.435 37.672H113.589V41.416C113.589 41.764 113.619 42.022 113.679 42.19C113.751 42.346 113.865 42.454 114.021 42.514C114.177 42.562 114.411 42.586 114.723 42.586H115.497C116.349 42.586 117.015 42.34 117.495 41.848C117.987 41.356 118.329 40.528 118.521 39.364H118.935C118.899 39.7 118.881 40.132 118.881 40.66ZM126.376 31.804C127.072 31.804 127.636 31.906 128.068 32.11C128.5 32.302 128.944 32.59 129.4 32.974C129.532 33.082 129.646 33.136 129.742 33.136C129.982 33.136 130.138 32.776 130.21 32.056H130.624C130.576 32.776 130.552 34.036 130.552 35.836H130.138C130.018 35.188 129.898 34.72 129.778 34.432C129.658 34.132 129.478 33.832 129.238 33.532C128.902 33.136 128.518 32.83 128.086 32.614C127.666 32.386 127.228 32.272 126.772 32.272C126.112 32.272 125.536 32.488 125.044 32.92C124.552 33.34 124.168 33.946 123.892 34.738C123.628 35.53 123.496 36.472 123.496 37.564C123.496 38.668 123.64 39.616 123.928 40.408C124.228 41.188 124.636 41.782 125.152 42.19C125.668 42.586 126.25 42.784 126.898 42.784C127.366 42.784 127.822 42.676 128.266 42.46C128.722 42.232 129.112 41.92 129.436 41.524C129.676 41.224 129.85 40.9 129.958 40.552C130.066 40.204 130.168 39.7 130.264 39.04H130.678C130.678 40.924 130.702 42.244 130.75 43H130.336C130.3 42.628 130.246 42.358 130.174 42.19C130.102 42.01 130.006 41.92 129.886 41.92C129.79 41.92 129.67 41.974 129.526 42.082C129.082 42.454 128.62 42.742 128.14 42.946C127.66 43.15 127.084 43.252 126.412 43.252C125.272 43.252 124.264 43.03 123.388 42.586C122.512 42.142 121.828 41.5 121.336 40.66C120.856 39.82 120.616 38.812 120.616 37.636C120.616 36.496 120.868 35.482 121.372 34.594C121.876 33.706 122.56 33.022 123.424 32.542C124.3 32.05 125.284 31.804 126.376 31.804ZM142.85 32.056C142.766 32.968 142.724 33.784 142.724 34.504C142.724 35.176 142.742 35.704 142.778 36.088H142.364C142.196 35.176 141.992 34.462 141.752 33.946C141.524 33.43 141.224 33.058 140.852 32.83C140.492 32.59 140.024 32.47 139.448 32.47H138.89V40.912C138.89 41.416 138.938 41.782 139.034 42.01C139.13 42.238 139.298 42.394 139.538 42.478C139.778 42.562 140.168 42.616 140.708 42.64V43C140.06 42.964 138.98 42.946 137.468 42.946C135.944 42.946 134.894 42.964 134.318 43V42.64C134.858 42.616 135.248 42.562 135.488 42.478C135.728 42.394 135.896 42.238 135.992 42.01C136.088 41.782 136.136 41.416 136.136 40.912V32.47H135.578C135.002 32.47 134.528 32.59 134.156 32.83C133.796 33.058 133.496 33.43 133.256 33.946C133.028 34.462 132.83 35.176 132.662 36.088H132.248C132.284 35.704 132.302 35.176 132.302 34.504C132.302 33.784 132.26 32.968 132.176 32.056C133.22 32.092 134.984 32.11 137.468 32.11C140 32.11 141.794 32.092 142.85 32.056Z" fill="#C6A327"/>
<path d="M29.5943 25.1694V11.2119V3.6748H39.92V17.9115L29.5943 25.1694Z" stroke="#CEA71D" stroke-opacity="0.5"/>
<path d="M61.4348 14.5501L22.8237 43.4152M22.8237 43.4152L14.43 37.1402M22.8237 43.4152H61.4348M22.8237 43.4152V61.7383H140V52.7023H61.4348M22.8237 43.4152L9.05797 52.7023M14.43 37.1402L61.4348 2V43.4152M14.43 37.1402L1 47.1803L9.05797 52.7023M61.4348 43.4152V52.7023M61.4348 52.7023H9.05797" stroke="#CD8025" stroke-opacity="0.5"/>
</svg>
