<svg width="22" height="22" viewBox="0 0 22 22" fill="none" xmlns="http://www.w3.org/2000/svg">
<g clip-path="url(#clip0)">
<path d="M15.5547 6.47739V7.10608C15.5547 8.14966 16.4183 8.99215 17.4883 8.99215H20.0664C21.1364 8.99215 22 8.14966 22 7.10608V6.47739H15.5547Z" fill="#D1B349" fill-opacity="0.7"/>
<path d="M0 6.47739V7.10608C0 8.14966 0.863629 8.99215 1.93359 8.99215H4.51172C5.58168 8.99215 6.44531 8.14966 6.44531 7.10608V6.47739H0Z" fill="#D1B349" fill-opacity="0.7"/>
<path d="M16.1992 0.190491H5.80076C2.82303 0.190491 0.360962 2.39134 0.0386963 5.221H21.9613C21.639 2.39134 19.1769 0.190491 16.1992 0.190491Z" fill="#D1B349" fill-opacity="0.7"/>
<path d="M12.3321 6.47739H9.668C8.83006 6.47739 8.10819 7.00555 7.85046 7.73501H14.1496C13.8918 7.00555 13.17 6.47739 12.3321 6.47739Z" fill="#D1B349" fill-opacity="0.7"/>
<path d="M11.043 12.8481C9.62504 12.8481 8.46484 13.9799 8.46484 15.3634C8.46484 16.7467 9.62504 17.8786 11.043 17.8786C12.4609 17.8786 13.6211 16.7467 13.6211 15.3634C13.6211 13.9799 12.4609 12.8481 11.043 12.8481ZM11.043 16.621C10.334 16.621 9.75391 16.0551 9.75391 15.3634C9.75391 14.6717 10.334 14.1057 11.043 14.1057C11.752 14.1057 12.332 14.6717 12.332 15.3634C12.332 16.0551 11.752 16.621 11.043 16.621Z" fill="#D1B349" fill-opacity="0.7"/>
<path d="M20.466 17.8022L17.166 9.98545C17.1531 9.96026 17.1402 9.93519 17.1273 9.91C16.7793 9.34418 16.1477 8.99216 15.4645 8.99216H6.53555C5.78239 8.99216 5.2507 9.36916 4.84688 9.9603C4.84688 9.97287 4.83398 9.97287 4.83398 9.98549L1.53398 17.8022C1.36641 18.1794 1.28906 18.5944 1.28906 19.0092V19.7637C1.28906 20.8073 2.15269 21.6498 3.22266 21.6498H18.7773C19.8473 21.6498 20.7109 20.8073 20.7109 19.7637V19.0092C20.7109 18.5944 20.6336 18.1794 20.466 17.8022ZM11.043 19.135C8.91597 19.135 7.17578 17.4375 7.17578 15.3629C7.17578 13.2882 8.91597 11.5907 11.043 11.5907C13.17 11.5907 14.9102 13.2882 14.9102 15.3629C14.9102 17.4375 13.17 19.135 11.043 19.135Z" fill="#D1B349" fill-opacity="0.7"/>
</g>
<defs>
<clipPath id="clip0">
<rect y="0.190491" width="22" height="21.4593" fill="white"/>
</clipPath>
</defs>
</svg>
