<svg class="svg-color" width="35" height="32" fill="none" xmlns="http://www.w3.org/2000/svg"><path d="M.88 10.48h6.24V32H.88V10.48zm3.12-3c-1.147 0-2.08-.333-2.8-1C.48 5.813.12 4.987.12 4c0-.987.36-1.813 1.08-2.48.72-.667 1.653-1 2.8-1 1.147 0 2.08.32 2.8.96.72.64 1.08 1.44 1.08 2.4 0 1.04-.36 1.907-1.08 2.6-.72.667-1.653 1-2.8 1zm21.991 2.68c2.667 0 4.814.8 6.44 2.4 1.654 1.6 2.48 3.973 2.48 7.12V32h-6.24V20.64c0-1.707-.373-2.973-1.12-3.8-.746-.853-1.826-1.28-3.24-1.28-1.573 0-2.826.493-3.76 1.48-.933.96-1.4 2.4-1.4 4.32V32h-6.24V10.48h5.96V13c.827-.907 1.854-1.6 3.08-2.08 1.227-.507 2.574-.76 4.04-.76z" fill="#979494"/></svg>