<svg width="40" height="40" fill="none" xmlns="http://www.w3.org/2000/svg"><mask id="a" maskUnits="userSpaceOnUse" x="5" y="9" width="30" height="22"><path d="M5.79 17.958l7.762-7.758a3.145 3.145 0 012.244-.931c.848 0 1.646.33 2.245.93.6.6.93 1.396.93 2.245a3.15 3.15 0 01-.93 2.245l-2.136 2.136H31.76A3.179 3.179 0 0134.935 20a3.179 3.179 0 01-3.175 3.175H15.906l2.135 2.136c.6.6.93 1.397.93 2.245 0 .848-.33 1.646-.93 2.245a3.15 3.15 0 01-2.244.93 3.16 3.16 0 01-2.246-.93l-7.586-7.585a3.242 3.242 0 01-.901-2.034c-.073-1.213.577-2.042.727-2.224zm1.229 3.315l7.53 7.53c.667.666 1.83.666 2.494 0a1.75 1.75 0 00.517-1.248c0-.47-.183-.914-.516-1.247l-4.546-4.544H31.76c.972 0 1.764-.791 1.764-1.764s-.792-1.764-1.764-1.764H12.5l4.545-4.544a1.75 1.75 0 00.516-1.248c0-.471-.183-.914-.516-1.247-.669-.668-1.832-.666-2.494-.001l-7.6 7.601a1.751 1.751 0 00-.496 1.169c-.016.759.486 1.235.565 1.306z" fill="#000"/></mask><g mask="url(#a)"><path fill="#EE7C13" d="M40 43.478H-3.478V0H40z"/></g></svg>